<svg width="87" height="112" viewBox="0 0 87 112" fill="none" xmlns="http://www.w3.org/2000/svg">
<g clip-path="url(#clip0_3803_584)">
<rect x="1" y="1" width="85" height="110" rx="16" fill="url(#paint0_linear_3803_584)" stroke="url(#paint1_linear_3803_584)" stroke-width="2"/>
<path d="M68.9116 56.1077C68.9116 54.1434 67.3155 52.5538 65.343 52.5538H61.7744V49C61.7744 40.4196 55.6361 33.2415 47.5 31.5904V27.6769C47.5 25.7126 45.9039 24.1231 43.9314 24.1231C41.9589 24.1231 40.3628 25.7126 40.3628 27.6769V31.5904C32.2266 33.2415 26.0884 40.4196 26.0884 49V52.5538H22.5198C20.5473 52.5538 18.9512 54.1434 18.9512 56.1077C18.9512 58.072 20.5473 59.6615 22.5198 59.6615H65.343C67.3155 59.6615 68.9116 58.072 68.9116 56.1077ZM58.2058 73.8769H29.657C27.6845 73.8769 26.0884 75.4664 26.0884 77.4308C26.0884 79.3951 27.6845 80.9846 29.657 80.9846H58.2058C60.1783 80.9846 61.7744 79.3951 61.7744 77.4308C61.7744 75.4664 60.1783 73.8769 58.2058 73.8769Z" fill="white"/>
</g>
<defs>
<linearGradient id="paint0_linear_3803_584" x1="43.5" y1="0" x2="43.5" y2="112" gradientUnits="userSpaceOnUse">
<stop stop-color="#FFF323"/>
<stop offset="1" stop-color="#FF5403"/>
</linearGradient>
<linearGradient id="paint1_linear_3803_584" x1="43.5" y1="0" x2="43.5" y2="112" gradientUnits="userSpaceOnUse">
<stop stop-color="#FF9F00"/>
<stop offset="1" stop-color="#FFB800"/>
</linearGradient>
<clipPath id="clip0_3803_584">
<rect width="87" height="112" fill="white"/>
</clipPath>
</defs>
</svg>
