<svg width="33" height="41" viewBox="0 0 33 41" fill="none" xmlns="http://www.w3.org/2000/svg">
<path d="M27.4915 21.9428C27.5313 18.8528 29.1908 15.929 31.8233 14.3105C30.1626 11.9386 27.3809 10.4348 24.4868 10.3442C21.4 10.0202 18.4075 12.1913 16.8345 12.1913C15.2311 12.1913 12.8093 10.3764 10.2014 10.4301C6.80205 10.5399 3.63304 12.4725 1.97921 15.4444C-1.57588 21.5995 1.0759 30.6454 4.48137 35.6207C6.1852 38.057 8.1765 40.7784 10.7821 40.6819C13.3318 40.5761 14.284 39.056 17.3617 39.056C20.4109 39.056 21.3043 40.6819 23.9627 40.6205C26.6987 40.5761 28.4224 38.1734 30.0665 35.7141C31.2907 33.9781 32.2327 32.0596 32.8577 30.0294C29.6424 28.6695 27.4953 25.4338 27.4915 21.9428Z" fill="#F17228"/>
<path d="M22.4701 7.07224C23.9619 5.28144 24.6968 2.97968 24.5189 0.655762C22.2398 0.895134 20.1346 1.98438 18.6227 3.70646C17.1442 5.38903 16.3748 7.65029 16.5203 9.88539C18.8002 9.90886 21.0415 8.84914 22.4701 7.07224Z" fill="#F17228"/>
</svg>
