<svg width="22" height="16" viewBox="0 0 22 16" fill="none" xmlns="http://www.w3.org/2000/svg">
<path d="M20.857 5.62179C21.0181 5.50092 21.2598 5.62179 21.2598 5.82322V14.0418C21.2598 15.1296 20.3735 15.9756 19.3261 15.9756H2.5666C1.47884 15.9756 0.632812 15.1296 0.632812 14.0418V5.82322C0.632812 5.62179 0.834248 5.50092 0.995397 5.62179C1.922 6.34695 3.09033 7.23327 7.19962 10.2145C8.04565 10.8188 9.49599 12.1483 10.9463 12.1483C12.3564 12.1483 13.847 10.8188 14.6527 10.2145C18.762 7.23327 19.9304 6.34695 20.857 5.62179ZM10.9463 10.8188C9.97943 10.8591 8.64996 9.6505 7.96508 9.16706C2.60688 5.29949 2.20401 4.9369 0.995397 3.97001C0.753674 3.80886 0.632812 3.52685 0.632812 3.20456V2.4391C0.632812 1.39163 1.47884 0.505317 2.5666 0.505317H19.3261C20.3735 0.505317 21.2598 1.39163 21.2598 2.4391V3.20456C21.2598 3.52685 21.0987 3.80886 20.857 3.97001C19.6484 4.9369 19.2455 5.29949 13.8873 9.16706C13.2024 9.6505 11.8729 10.8591 10.9463 10.8188Z" fill="#ADADAD"/>
</svg>
