<svg width="22" height="16" viewBox="0 0 22 16" fill="none" xmlns="http://www.w3.org/2000/svg">
<path d="M20.857 5.62179C19.9304 6.34695 18.762 7.23327 14.6527 10.2145C13.847 10.8188 12.3564 12.1483 10.9463 12.1483C9.49599 12.1483 8.04565 10.8188 7.19962 10.2145C3.09033 7.23327 1.922 6.34695 0.995397 5.62179C0.834248 5.50092 0.632812 5.62179 0.632812 5.82322V14.0418C0.632812 15.1296 1.47884 15.9756 2.5666 15.9756H19.3261C20.3735 15.9756 21.2598 15.1296 21.2598 14.0418V5.82322C21.2598 5.62179 21.0181 5.50092 20.857 5.62179ZM10.9463 10.8188C11.8729 10.8591 13.2024 9.6505 13.8873 9.16706C19.2455 5.29949 19.6484 4.9369 20.857 3.97001C21.0987 3.80886 21.2598 3.52685 21.2598 3.20456V2.4391C21.2598 1.39163 20.3735 0.505317 19.3261 0.505317H2.5666C1.47884 0.505317 0.632812 1.39163 0.632812 2.4391V3.20456C0.632812 3.52685 0.753674 3.80886 0.995397 3.97001C2.20401 4.9369 2.60688 5.29949 7.96508 9.16706C8.64996 9.6505 9.97943 10.8591 10.9463 10.8188Z" fill="#ADADAD"/>
</svg>
