<svg width="19" height="19" viewBox="0 0 19 19" fill="none" xmlns="http://www.w3.org/2000/svg">
<path d="M9.90518 4.41578C7.3268 4.41578 5.27216 6.51071 5.27216 9.0488C5.27216 11.6272 7.3268 13.6818 9.90518 13.6818C12.4433 13.6818 14.5382 11.6272 14.5382 9.0488C14.5382 6.51071 12.4433 4.41578 9.90518 4.41578ZM9.90518 12.0703C8.25341 12.0703 6.88365 10.7409 6.88365 9.0488C6.88365 7.39703 8.21312 6.06755 9.90518 6.06755C11.557 6.06755 12.8864 7.39703 12.8864 9.0488C12.8864 10.7409 11.557 12.0703 9.90518 12.0703ZM15.7871 4.25463C15.7871 3.65032 15.3037 3.16688 14.6994 3.16688C14.095 3.16688 13.6116 3.65032 13.6116 4.25463C13.6116 4.85894 14.095 5.34238 14.6994 5.34238C15.3037 5.34238 15.7871 4.85894 15.7871 4.25463ZM18.8489 5.34238C18.7684 3.89204 18.4461 2.60286 17.3986 1.55539C16.3511 0.507923 15.0619 0.185626 13.6116 0.105052C12.121 0.0244772 7.6491 0.0244772 6.15848 0.105052C4.70814 0.185626 3.45924 0.507923 2.37148 1.55539C1.32402 2.60286 1.00172 3.89204 0.921147 5.34238C0.840572 6.83301 0.840572 11.3049 0.921147 12.7955C1.00172 14.2458 1.32402 15.4947 2.37148 16.5825C3.45924 17.63 4.70814 17.9523 6.15848 18.0328C7.6491 18.1134 12.121 18.1134 13.6116 18.0328C15.0619 17.9523 16.3511 17.63 17.3986 16.5825C18.4461 15.4947 18.7684 14.2458 18.8489 12.7955C18.9295 11.3049 18.9295 6.83301 18.8489 5.34238ZM16.9151 14.3667C16.6331 15.1724 15.9885 15.7768 15.2231 16.0991C14.0145 16.5825 11.1944 16.4616 9.90518 16.4616C8.57571 16.4616 5.75561 16.5825 4.58728 16.0991C3.78153 15.7768 3.17723 15.1724 2.85493 14.3667C2.37148 13.1984 2.49235 10.3783 2.49235 9.0488C2.49235 7.75961 2.37148 4.93951 2.85493 3.7309C3.17723 2.96544 3.78153 2.36113 4.58728 2.03884C5.75561 1.55539 8.57571 1.67625 9.90518 1.67625C11.1944 1.67625 14.0145 1.55539 15.2231 2.03884C15.9885 2.32085 16.5929 2.96544 16.9151 3.7309C17.3986 4.93951 17.2777 7.75961 17.2777 9.0488C17.2777 10.3783 17.3986 13.1984 16.9151 14.3667Z" fill="#F5F5F5"/>
</svg>
