<svg width="19" height="19" viewBox="0 0 19 19" fill="none" xmlns="http://www.w3.org/2000/svg">
<path d="M9.90518 4.41602C7.3268 4.41602 5.27216 6.51095 5.27216 9.04905C5.27216 11.6274 7.3268 13.6821 9.90518 13.6821C12.4433 13.6821 14.5382 11.6274 14.5382 9.04905C14.5382 6.51095 12.4433 4.41602 9.90518 4.41602ZM9.90518 12.0706C8.25341 12.0706 6.88365 10.7411 6.88365 9.04905C6.88365 7.39727 8.21312 6.0678 9.90518 6.0678C11.557 6.0678 12.8864 7.39727 12.8864 9.04905C12.8864 10.7411 11.557 12.0706 9.90518 12.0706ZM15.7871 4.25487C15.7871 3.65057 15.3037 3.16712 14.6994 3.16712C14.095 3.16712 13.6116 3.65057 13.6116 4.25487C13.6116 4.85918 14.095 5.34263 14.6994 5.34263C15.3037 5.34263 15.7871 4.85918 15.7871 4.25487ZM18.8489 5.34263C18.7684 3.89229 18.4461 2.6031 17.3986 1.55563C16.3511 0.508167 15.0619 0.18587 13.6116 0.105296C12.121 0.0247214 7.6491 0.0247214 6.15848 0.105296C4.70814 0.18587 3.45924 0.508167 2.37148 1.55563C1.32402 2.6031 1.00172 3.89229 0.921147 5.34263C0.840572 6.83325 0.840572 11.3051 0.921147 12.7958C1.00172 14.2461 1.32402 15.495 2.37148 16.5827C3.45924 17.6302 4.70814 17.9525 6.15848 18.0331C7.6491 18.1137 12.121 18.1137 13.6116 18.0331C15.0619 17.9525 16.3511 17.6302 17.3986 16.5827C18.4461 15.495 18.7684 14.2461 18.8489 12.7958C18.9295 11.3051 18.9295 6.83325 18.8489 5.34263ZM16.9151 14.367C16.6331 15.1727 15.9885 15.777 15.2231 16.0993C14.0145 16.5827 11.1944 16.4619 9.90518 16.4619C8.57571 16.4619 5.75561 16.5827 4.58728 16.0993C3.78153 15.777 3.17723 15.1727 2.85493 14.367C2.37148 13.1986 2.49235 10.3785 2.49235 9.04905C2.49235 7.75986 2.37148 4.93975 2.85493 3.73114C3.17723 2.96568 3.78153 2.36138 4.58728 2.03908C5.75561 1.55563 8.57571 1.67649 9.90518 1.67649C11.1944 1.67649 14.0145 1.55563 15.2231 2.03908C15.9885 2.32109 16.5929 2.96568 16.9151 3.73114C17.3986 4.93975 17.2777 7.75986 17.2777 9.04905C17.2777 10.3785 17.3986 13.1986 16.9151 14.367Z" fill="#636363"/>
</svg>
