<svg width="153" height="192" viewBox="0 0 153 192" fill="none" xmlns="http://www.w3.org/2000/svg">
<g filter="url(#filter0_dd_3650_7842)">
<path d="M42.8174 130.826L42.8136 130.825C41.9639 130.473 41.4062 129.64 41.4062 128.717V23.2812C41.4062 22.0199 42.4261 21 43.6875 21H109.312C110.574 21 111.594 22.0198 111.594 23.2812C111.594 23.2813 111.594 23.2813 111.594 23.2814V128.718C111.594 129.64 111.036 130.473 110.187 130.825L110.181 130.827C109.359 131.173 108.364 130.995 107.7 130.33C104.966 127.597 100.534 127.597 97.8005 130.33C96.9093 131.222 95.4659 131.222 94.5748 130.33C91.8412 127.597 87.409 127.597 84.6755 130.33C83.7843 131.222 82.3409 131.222 81.4498 130.33C78.7162 127.597 74.284 127.597 71.5505 130.33C70.6593 131.222 69.2159 131.222 68.3248 130.33C65.5912 127.597 61.159 127.597 58.4255 130.33C57.5343 131.222 56.0909 131.222 55.1998 130.33C52.4663 127.597 48.0341 127.597 45.3005 130.33C44.6438 130.987 43.6589 131.178 42.8174 130.826Z" fill="url(#paint0_linear_3650_7842)" stroke="url(#paint1_linear_3650_7842)" stroke-width="2"/>
<path d="M76.5 55.3029C74.6927 55.3029 73.2187 53.832 73.2187 52.0216C73.2187 50.2113 74.6927 48.7404 76.5 48.7404C78.3073 48.7404 79.7812 50.2113 79.7812 52.0216C79.7812 53.8353 81.2488 55.3029 83.0625 55.3029C84.8762 55.3029 86.3437 53.8353 86.3437 52.0216C86.3437 47.7494 83.5927 44.1414 79.7812 42.7823V38.8966C79.7812 37.083 78.3137 35.6154 76.5 35.6154C74.6863 35.6154 73.2187 37.083 73.2187 38.8966V42.7823C69.4072 44.1414 66.6562 47.7494 66.6562 52.0216C66.6562 57.4497 71.0719 61.8654 76.5 61.8654C78.3073 61.8654 79.7812 63.3363 79.7812 65.1466C79.7812 66.957 78.3073 68.4279 76.5 68.4279C74.6927 68.4279 73.2187 66.957 73.2187 65.1466C73.2187 63.333 71.7512 61.8654 69.9375 61.8654C68.1238 61.8654 66.6562 63.333 66.6562 65.1466C66.6562 69.4188 69.4072 73.0269 73.2187 74.386V78.2716C73.2187 80.0853 74.6863 81.5529 76.5 81.5529C78.3137 81.5529 79.7812 80.0853 79.7812 78.2716V74.386C83.5927 73.0271 86.3437 69.4188 86.3437 65.1466C86.3437 59.7186 81.9283 55.3029 76.5 55.3029ZM76.5 88.1154H56.8125C54.9988 88.1154 53.5312 89.583 53.5312 91.3966C53.5312 93.2103 54.9988 94.6779 56.8125 94.6779H76.5C78.3137 94.6779 79.7812 93.2103 79.7812 91.3966C79.7812 89.583 78.3137 88.1154 76.5 88.1154ZM76.5 101.24H56.8125C54.9988 101.24 53.5312 102.708 53.5312 104.522C53.5312 106.335 54.9988 107.803 56.8125 107.803H76.5C78.3137 107.803 79.7812 106.335 79.7812 104.522C79.7812 102.708 78.3137 101.24 76.5 101.24ZM89.625 94.6779H96.1875C98.0012 94.6779 99.4687 93.2103 99.4687 91.3966C99.4687 89.583 98.0012 88.1154 96.1875 88.1154H89.625C87.8113 88.1154 86.3437 89.583 86.3437 91.3966C86.3437 93.2103 87.8113 94.6779 89.625 94.6779ZM96.1875 101.24H89.625C87.8113 101.24 86.3437 102.708 86.3437 104.522C86.3437 106.335 87.8113 107.803 89.625 107.803H96.1875C98.0012 107.803 99.4687 106.335 99.4687 104.522C99.4687 102.708 98.0012 101.24 96.1875 101.24Z" fill="white"/>
</g>
<defs>
<filter id="filter0_dd_3650_7842" x="0.40625" y="0" width="152.188" height="192" filterUnits="userSpaceOnUse" color-interpolation-filters="sRGB">
<feFlood flood-opacity="0" result="BackgroundImageFix"/>
<feColorMatrix in="SourceAlpha" type="matrix" values="0 0 0 0 0 0 0 0 0 0 0 0 0 0 0 0 0 0 127 0" result="hardAlpha"/>
<feOffset dy="20"/>
<feGaussianBlur stdDeviation="20"/>
<feColorMatrix type="matrix" values="0 0 0 0 1 0 0 0 0 0.680498 0 0 0 0 0 0 0 0 0.29 0"/>
<feBlend mode="normal" in2="BackgroundImageFix" result="effect1_dropShadow_3650_7842"/>
<feColorMatrix in="SourceAlpha" type="matrix" values="0 0 0 0 0 0 0 0 0 0 0 0 0 0 0 0 0 0 127 0" result="hardAlpha"/>
<feOffset dy="5"/>
<feGaussianBlur stdDeviation="5"/>
<feColorMatrix type="matrix" values="0 0 0 0 1 0 0 0 0 0.680498 0 0 0 0 0 0 0 0 0.26 0"/>
<feBlend mode="normal" in2="effect1_dropShadow_3650_7842" result="effect2_dropShadow_3650_7842"/>
<feBlend mode="normal" in="SourceGraphic" in2="effect2_dropShadow_3650_7842" result="shape"/>
</filter>
<linearGradient id="paint0_linear_3650_7842" x1="76.5001" y1="20" x2="76.5001" y2="132" gradientUnits="userSpaceOnUse">
<stop stop-color="#FFF323"/>
<stop offset="1" stop-color="#FF5403"/>
</linearGradient>
<linearGradient id="paint1_linear_3650_7842" x1="76.5001" y1="20" x2="76.5001" y2="132" gradientUnits="userSpaceOnUse">
<stop stop-color="#FF9F00"/>
<stop offset="1" stop-color="#FFB800"/>
</linearGradient>
</defs>
</svg>
