<svg width="73" height="112" viewBox="0 0 73 112" fill="none" xmlns="http://www.w3.org/2000/svg">
<path d="M2.81745 110.826L2.81357 110.825C1.96385 110.473 1.40625 109.64 1.40625 108.717V3.28125C1.40625 2.01988 2.42613 1 3.6875 1H69.3125C70.5738 1 71.5938 2.01982 71.594 3.28125C71.594 3.28129 71.594 3.28133 71.594 3.28137V108.718C71.594 109.64 71.0364 110.473 70.1866 110.825L70.1812 110.827C69.3594 111.173 68.3644 110.995 67.6998 110.33C64.9662 107.597 60.534 107.597 57.8005 110.33C56.9093 111.222 55.4659 111.222 54.5748 110.33C51.8412 107.597 47.409 107.597 44.6755 110.33C43.7843 111.222 42.3409 111.222 41.4498 110.33C38.7162 107.597 34.284 107.597 31.5505 110.33C30.6593 111.222 29.2159 111.222 28.3248 110.33C25.5912 107.597 21.159 107.597 18.4255 110.33C17.5343 111.222 16.0909 111.222 15.1998 110.33C12.4663 107.597 8.03406 107.597 5.30046 110.33C4.64384 110.987 3.65888 111.178 2.81745 110.826Z" fill="url(#paint0_linear_3803_635)" stroke="url(#paint1_linear_3803_635)" stroke-width="2"/>
<path d="M36.5 35.3029C34.6927 35.3029 33.2187 33.832 33.2187 32.0216C33.2187 30.2113 34.6927 28.7404 36.5 28.7404C38.3073 28.7404 39.7812 30.2113 39.7812 32.0216C39.7812 33.8353 41.2488 35.3029 43.0625 35.3029C44.8762 35.3029 46.3437 33.8353 46.3437 32.0216C46.3437 27.7494 43.5927 24.1414 39.7812 22.7823V18.8966C39.7812 17.083 38.3137 15.6154 36.5 15.6154C34.6863 15.6154 33.2187 17.083 33.2187 18.8966V22.7823C29.4072 24.1414 26.6562 27.7494 26.6562 32.0216C26.6562 37.4497 31.0719 41.8654 36.5 41.8654C38.3073 41.8654 39.7812 43.3363 39.7812 45.1466C39.7812 46.957 38.3073 48.4279 36.5 48.4279C34.6927 48.4279 33.2187 46.957 33.2187 45.1466C33.2187 43.333 31.7512 41.8654 29.9375 41.8654C28.1238 41.8654 26.6562 43.333 26.6562 45.1466C26.6562 49.4188 29.4072 53.0269 33.2187 54.386V58.2716C33.2187 60.0853 34.6863 61.5529 36.5 61.5529C38.3137 61.5529 39.7812 60.0853 39.7812 58.2716V54.386C43.5927 53.0271 46.3437 49.4188 46.3437 45.1466C46.3437 39.7186 41.9283 35.3029 36.5 35.3029ZM36.5 68.1154H16.8125C14.9988 68.1154 13.5312 69.583 13.5312 71.3966C13.5312 73.2103 14.9988 74.6779 16.8125 74.6779H36.5C38.3137 74.6779 39.7812 73.2103 39.7812 71.3966C39.7812 69.583 38.3137 68.1154 36.5 68.1154ZM36.5 81.2404H16.8125C14.9988 81.2404 13.5312 82.708 13.5312 84.5216C13.5312 86.3353 14.9988 87.8029 16.8125 87.8029H36.5C38.3137 87.8029 39.7812 86.3353 39.7812 84.5216C39.7812 82.708 38.3137 81.2404 36.5 81.2404ZM49.625 74.6779H56.1875C58.0012 74.6779 59.4687 73.2103 59.4687 71.3966C59.4687 69.583 58.0012 68.1154 56.1875 68.1154H49.625C47.8113 68.1154 46.3437 69.583 46.3437 71.3966C46.3437 73.2103 47.8113 74.6779 49.625 74.6779ZM56.1875 81.2404H49.625C47.8113 81.2404 46.3437 82.708 46.3437 84.5216C46.3437 86.3353 47.8113 87.8029 49.625 87.8029H56.1875C58.0012 87.8029 59.4687 86.3353 59.4687 84.5216C59.4687 82.708 58.0012 81.2404 56.1875 81.2404Z" fill="white"/>
<defs>
<linearGradient id="paint0_linear_3803_635" x1="36.5001" y1="0" x2="36.5001" y2="112" gradientUnits="userSpaceOnUse">
<stop stop-color="#FFF323"/>
<stop offset="1" stop-color="#FF5403"/>
</linearGradient>
<linearGradient id="paint1_linear_3803_635" x1="36.5001" y1="0" x2="36.5001" y2="112" gradientUnits="userSpaceOnUse">
<stop stop-color="#FF9F00"/>
<stop offset="1" stop-color="#FFB800"/>
</linearGradient>
</defs>
</svg>
