<svg width="19" height="25" viewBox="0 0 19 25" fill="none" xmlns="http://www.w3.org/2000/svg">
<path d="M8.13979 23.9291C8.56234 24.5864 9.54828 24.5864 9.97083 23.9291C16.8255 14.0697 18.0931 13.0368 18.0931 9.37475C18.0931 4.39809 14.0554 0.36042 9.07878 0.36042C4.05517 0.36042 0.0644531 4.39809 0.0644531 9.37475C0.0644531 13.0368 1.28514 14.0697 8.13979 23.9291ZM9.07878 13.1307C6.96605 13.1307 5.32281 11.4875 5.32281 9.37475C5.32281 7.30897 6.96605 5.61878 9.07878 5.61878C11.1446 5.61878 12.8348 7.30897 12.8348 9.37475C12.8348 11.4875 11.1446 13.1307 9.07878 13.1307Z" fill="#F90716"/>
</svg>
