<svg width="43" height="49" viewBox="0 0 43 49" fill="none" xmlns="http://www.w3.org/2000/svg">
<path fill-rule="evenodd" clip-rule="evenodd" d="M0.814781 1.98194C0.506229 2.51913 0.332031 3.22091 0.332031 4.0655V44.7192C0.332031 45.5658 0.506469 46.2673 0.815418 46.8042L23.2246 24.3918L0.814781 1.98194ZM1.66175 47.6909C2.51059 48.2074 3.69602 48.157 5.0029 47.4159L31.3034 32.4706L24.0911 25.2583L1.66175 47.6909ZM32.4097 31.8438L40.8497 27.0486C43.4177 25.5872 43.4177 23.1994 40.8497 21.7399L32.4062 16.942L24.9576 24.3917L32.4097 31.8438ZM31.3011 16.3141L5.0029 1.37071C3.69593 0.628004 2.51043 0.578661 1.66157 1.09566L24.0911 23.5252L31.3011 16.3141Z" fill="#F17228"/>
</svg>
