<svg width="16" height="15" viewBox="0 0 16 15" fill="none" xmlns="http://www.w3.org/2000/svg">
<path d="M14.7642 12.7736L12.0254 10.0349C11.8885 9.92531 11.7242 9.84315 11.5599 9.84315H11.1217C11.8611 8.88459 12.3267 7.67955 12.3267 6.33757C12.3267 3.21542 9.7523 0.641016 6.63015 0.641016C3.48061 0.641016 0.933594 3.21542 0.933594 6.33757C0.933594 9.48711 3.48061 12.0341 6.63015 12.0341C7.94474 12.0341 9.14978 11.5959 10.1357 10.8291V11.2947C10.1357 11.459 10.1905 11.6233 10.3274 11.7603L13.0388 14.4716C13.3126 14.7455 13.7235 14.7455 13.9699 14.4716L14.7368 13.7048C15.0107 13.4583 15.0107 13.0475 14.7642 12.7736ZM6.63015 9.84315C4.68565 9.84315 3.12458 8.28207 3.12458 6.33757C3.12458 4.42046 4.68565 2.832 6.63015 2.832C8.54726 2.832 10.1357 4.42046 10.1357 6.33757C10.1357 8.28207 8.54726 9.84315 6.63015 9.84315Z" fill="white"/>
</svg>
