<svg width="98" height="19" viewBox="0 0 98 19" fill="none" xmlns="http://www.w3.org/2000/svg">
<path d="M86.0218 5.54266L88.4786 0.350391C88.5258 0.245938 88.5995 0.157716 88.6914 0.0957691C88.7833 0.0338223 88.8896 0.000639921 88.9983 0C89.2042 0 89.4101 0.116397 89.5214 0.350391L91.9783 5.54266L97.4882 6.37784C97.6255 6.40087 97.7512 6.47373 97.8441 6.58412C97.9369 6.69452 97.9912 6.83569 97.9978 6.98382C98.0056 7.08244 97.9925 7.18168 97.9594 7.27414C97.9263 7.3666 97.874 7.44989 97.8066 7.51781L93.8434 11.5449L94.7771 17.2208C94.8649 17.7523 94.3721 18.1687 93.9379 17.9311L88.9983 15.224L84.061 17.9311C84.0094 17.9597 83.954 17.98 83.8968 17.9911C83.512 18.0631 83.1453 17.6863 83.2218 17.2208L84.1555 11.5449L80.1935 7.51781C80.1319 7.45565 80.0829 7.38064 80.0497 7.29746C80.0164 7.21427 79.9995 7.12467 80 7.03422C80.0001 6.90635 80.0332 6.78096 80.0956 6.67183C80.14 6.59272 80.2004 6.52523 80.2724 6.47434C80.3444 6.42346 80.4263 6.39048 80.5119 6.37784L86.0218 5.54266ZM88.9983 13.832C89.0891 13.8316 89.1787 13.8547 89.2593 13.8992L93.4058 16.172L92.6251 11.4237C92.6067 11.3145 92.6137 11.2021 92.6454 11.0965C92.6772 10.9908 92.7328 10.8951 92.8074 10.8177L96.0775 7.49381L91.5193 6.80263C91.4249 6.78742 91.3354 6.74804 91.2584 6.68785C91.1814 6.62766 91.1192 6.54846 91.0772 6.45704L88.9995 2.06755L88.9983 2.07115V13.8308V13.832Z" fill="black"/>
<path d="M9 0.439941L12 6.43994L18 7.18994L13.88 11.8099L15 18.4399L9 15.4399L3 18.4399L4.13 11.8099L0 7.18994L6 6.43994L9 0.439941Z" fill="black"/>
<path d="M29 0L32 6L38 6.75L33.88 11.37L35 18L29 15L23 18L24.13 11.37L20 6.75L26 6L29 0Z" fill="black"/>
<path d="M69 0L72 6L78 6.75L73.88 11.37L75 18L69 15L63 18L64.13 11.37L60 6.75L66 6L69 0Z" fill="black"/>
<path d="M49 0L52 6L58 6.75L53.88 11.37L55 18L49 15L43 18L44.13 11.37L40 6.75L46 6L49 0Z" fill="black"/>
</svg>
