<svg width="21" height="18" viewBox="0 0 21 18" fill="none" xmlns="http://www.w3.org/2000/svg">
<path d="M18.5504 4.85918C19.3561 4.25487 20.0813 3.5297 20.6453 2.68367C19.9202 3.00597 19.0741 3.24769 18.2281 3.32827C19.1144 2.80454 19.759 1.99879 20.0813 0.991613C19.2756 1.47506 18.349 1.83764 17.4224 2.03908C16.6166 1.19305 15.5289 0.709603 14.3202 0.709603C11.9836 0.709603 10.0901 2.6031 10.0901 4.93975C10.0901 5.26205 10.1304 5.58435 10.211 5.90665C6.70598 5.70521 3.56358 4.01315 1.46864 1.47506C1.10606 2.07937 0.904624 2.80454 0.904624 3.61028C0.904624 5.06062 1.62979 6.34981 2.79812 7.11526C2.11324 7.07497 1.42836 6.91383 0.864337 6.59153V6.63182C0.864337 8.68646 2.31467 10.3785 4.24846 10.7814C3.92616 10.862 3.52329 10.9425 3.16071 10.9425C2.87869 10.9425 2.63697 10.9023 2.35496 10.862C2.87869 12.554 4.44989 13.7626 6.3031 13.8029C4.85277 14.931 3.03984 15.6159 1.06577 15.6159C0.703188 15.6159 0.380891 15.5756 0.0585938 15.5353C1.9118 16.7439 4.1276 17.4288 6.54483 17.4288C14.3202 17.4288 18.5504 11.0231 18.5504 5.4232C18.5504 5.22176 18.5504 5.06062 18.5504 4.85918Z" fill="#636363"/>
</svg>
