<svg width="21" height="18" viewBox="0 0 21 18" fill="none" xmlns="http://www.w3.org/2000/svg">
<path d="M18.5504 4.85894C19.3561 4.25463 20.0813 3.52946 20.6453 2.68343C19.9202 3.00573 19.0741 3.24745 18.2281 3.32802C19.1144 2.80429 19.759 1.99855 20.0813 0.991369C19.2756 1.47481 18.349 1.8374 17.4224 2.03884C16.6166 1.1928 15.5289 0.709359 14.3202 0.709359C11.9836 0.709359 10.0901 2.60286 10.0901 4.93951C10.0901 5.26181 10.1304 5.58411 10.211 5.9064C6.70598 5.70497 3.56358 4.01291 1.46864 1.47481C1.10606 2.07912 0.904624 2.80429 0.904624 3.61003C0.904624 5.06037 1.62979 6.34956 2.79812 7.11502C2.11324 7.07473 1.42836 6.91358 0.864337 6.59128V6.63157C0.864337 8.68622 2.31467 10.3783 4.24846 10.7811C3.92616 10.8617 3.52329 10.9423 3.16071 10.9423C2.87869 10.9423 2.63697 10.902 2.35496 10.8617C2.87869 12.5538 4.44989 13.7624 6.3031 13.8027C4.85277 14.9307 3.03984 15.6156 1.06577 15.6156C0.703188 15.6156 0.380891 15.5753 0.0585938 15.535C1.9118 16.7436 4.1276 17.4285 6.54483 17.4285C14.3202 17.4285 18.5504 11.0229 18.5504 5.42296C18.5504 5.22152 18.5504 5.06037 18.5504 4.85894Z" fill="#F5F5F5"/>
</svg>
